<?xml version="1.0" encoding="utf-8"?>
<!-- Generator: Adobe Illustrator 24.0.0, SVG Export Plug-In . SVG Version: 6.00 Build 0)  -->
<svg version="1.1" id="Capa_1" xmlns="http://www.w3.org/2000/svg" xmlns:xlink="http://www.w3.org/1999/xlink" x="0px" y="0px"
	 viewBox="0 0 512 512" style="enable-background:new 0 0 512 512;" xml:space="preserve">
<style type="text/css">
	.st0{fill:#696969;}
	.st1{fill:#FF8600;}
</style>
<path id="gray" class="st0" d="M256.5,510.9l-0.4-505h70.3c0,0,107.4,0,132.1,124.1S348.9,288.3,348.9,288.3s-6.3,0.3-4.2,5.6
	c2,5.3,7.3,3.7,17.2,2.2c9.8-1.5,46.7-7.6,67.7-28.3c21-20.7,16.6-17.4,36.9,6.7c20.3,24.1,36.3,121.8-26.8,180.5
	C376.6,513.7,371.2,507.3,256.5,510.9z"/>
<path id="orange" class="st1" d="M236.8,6.1l0.4,505.9L121,510.2c0,0-63.4-13.2-84.4-67.5s-2.4-274.8-8.5-335.9S81-16.7,236.8,6.1z"
	/>
</svg>
